<svg xmlns="http://www.w3.org/2000/svg" xmlns:xlink="http://www.w3.org/1999/xlink" width="500" zoomAndPan="magnify" viewBox="0 0 375 374.999991" height="500" preserveAspectRatio="xMidYMid meet" version="1.0"><path fill="#00b0ff" d="M 184.382812 43.261719 C 182.074219 44.546875 176.945312 47.6875 172.84375 50.382812 C 171.367188 51.347656 167.90625 53.527344 165.148438 55.261719 C 162.390625 56.992188 158.738281 59.304688 156.941406 60.457031 C 149.503906 65.207031 133.28125 75.023438 127.703125 78.101562 C 122.511719 80.988281 121.675781 83.683594 125.140625 86.121094 C 126.164062 86.828125 132.128906 91.320312 138.410156 96.066406 C 144.695312 100.816406 150.464844 105.179688 151.234375 105.691406 C 151.941406 106.207031 154.121094 107.746094 156.042969 109.09375 C 165.019531 115.316406 169.894531 118.847656 175.601562 123.144531 C 179.0625 125.710938 183.039062 128.792969 184.578125 129.882812 C 188.230469 132.640625 189.128906 132.578125 194.257812 128.917969 C 196.695312 127.25 199.257812 125.453125 199.964844 124.941406 C 200.734375 124.429688 203.042969 122.695312 205.09375 121.089844 C 211.761719 116.023438 215.800781 113.070312 223.6875 107.679688 C 226.574219 105.691406 231.703125 102.035156 235.164062 99.597656 C 238.5625 97.09375 242.027344 94.65625 242.796875 94.144531 C 245.167969 92.539062 254.722656 84.453125 254.722656 84.132812 C 254.722656 82.144531 242.925781 73.996094 228.753906 66.230469 C 223.113281 63.152344 213.878906 57.507812 206.3125 52.4375 C 192.464844 43.199219 187.910156 41.273438 184.382812 43.261719 Z M 92.824219 101.136719 C 91.414062 101.777344 88.398438 103.511719 86.089844 104.988281 C 83.78125 106.398438 80.578125 108.324219 78.910156 109.222656 C 77.242188 110.054688 75.769531 111.082031 75.511719 111.46875 C 75.320312 111.851562 74.035156 112.6875 72.753906 113.457031 C 71.472656 114.160156 68.652344 115.894531 66.535156 117.242188 C 64.417969 118.589844 60.058594 121.21875 56.851562 123.015625 C 53.261719 125.070312 50.699219 126.929688 50.25 127.894531 C 49.351562 129.945312 49.222656 243.128906 50.121094 244.796875 C 50.441406 245.375 52.621094 247.042969 54.992188 248.453125 C 63.007812 253.332031 65.894531 255.128906 67.816406 256.476562 C 68.90625 257.179688 71.472656 258.914062 73.585938 260.261719 C 75.703125 261.609375 80.128906 264.496094 83.460938 266.675781 C 91.667969 272.003906 93.722656 271.875 96.992188 265.523438 C 98.210938 263.019531 98.273438 261.863281 98.335938 228.4375 C 98.402344 178.390625 98.65625 174.089844 101.734375 169.597656 C 106.097656 163.246094 113.40625 158.949219 119.816406 158.949219 C 125.074219 158.949219 129.753906 161.515625 143.21875 171.652344 C 146.746094 174.28125 158.992188 183.074219 165.339844 187.5 C 166.367188 188.207031 168.675781 189.875 170.40625 191.222656 C 172.203125 192.570312 175.472656 195.007812 177.714844 196.675781 C 179.894531 198.34375 182.652344 200.460938 183.808594 201.421875 C 186.628906 203.734375 188.617188 204.117188 190.667969 202.769531 C 194.386719 200.269531 196.375 198.792969 204.070312 193.082031 C 208.492188 189.808594 213.171875 186.34375 214.519531 185.382812 C 215.867188 184.421875 217.789062 183.074219 218.6875 182.304688 C 219.648438 181.53125 223.753906 178.644531 227.855469 175.886719 C 231.960938 173.128906 238.308594 168.699219 241.960938 166.070312 C 250.042969 160.296875 252.796875 159.011719 256.773438 158.949219 C 263.761719 158.949219 270.238281 161.449219 273.636719 165.492188 C 277.613281 170.238281 277.484375 167.800781 277.804688 218.105469 C 278.125 264.046875 278.125 264.046875 280.046875 266.871094 C 282.484375 270.335938 285.050781 270.847656 288.578125 268.472656 C 289.921875 267.640625 291.589844 266.546875 292.359375 266.035156 C 293.066406 265.523438 295.820312 263.726562 298.449219 261.992188 C 301.015625 260.261719 306.015625 256.988281 309.542969 254.679688 C 313.070312 252.367188 316.660156 250.058594 317.558594 249.480469 C 318.457031 248.839844 320.316406 247.683594 321.789062 246.914062 C 325.507812 244.863281 326.148438 243.449219 326.214844 237.546875 C 326.917969 195.070312 326.535156 129.175781 325.636719 127.828125 C 324.675781 126.351562 321.339844 124.042969 314.289062 119.808594 C 309.605469 117.050781 303.195312 112.878906 301.527344 111.59375 C 300.628906 110.953125 298.769531 109.734375 297.359375 108.964844 C 295.949219 108.195312 293.191406 106.589844 291.269531 105.371094 C 281.136719 99.019531 283.320312 98.507812 263.828125 111.980469 C 260.878906 113.96875 257.351562 116.34375 256.003906 117.242188 C 249.207031 121.734375 247.734375 122.824219 244.140625 125.519531 C 240.167969 128.597656 239.527344 129.046875 233.628906 133.152344 C 229.394531 136.105469 226.125 138.289062 223.238281 140.148438 C 220.164062 142.136719 217.726562 143.871094 210.609375 149.195312 C 201.375 156.1875 195.347656 160.167969 191.757812 161.578125 C 187.332031 163.3125 185.472656 162.476562 172.007812 152.46875 C 169.378906 150.542969 166.558594 148.488281 165.789062 147.976562 C 157.390625 142.328125 141.554688 131.613281 139.246094 129.945312 C 137.578125 128.792969 133.410156 125.777344 129.949219 123.335938 C 126.550781 120.835938 121.484375 117.242188 118.726562 115.316406 C 116.035156 113.390625 110.96875 109.734375 107.570312 107.296875 C 96.605469 99.339844 96.671875 99.339844 92.824219 101.136719 Z M 125.652344 193.402344 C 125.394531 193.59375 125.203125 211.6875 125.203125 233.503906 C 125.203125 274.953125 124.945312 279.507812 122.253906 284.964844 C 120.074219 289.390625 121.613281 291.121094 134.5 299.398438 C 136.617188 300.746094 140.976562 303.570312 144.183594 305.625 C 149.632812 309.089844 151.171875 310.050781 156.171875 313.066406 C 157.199219 313.644531 159.058594 314.800781 160.339844 315.632812 C 161.621094 316.53125 164.316406 318.265625 166.238281 319.484375 C 168.164062 320.703125 171.945312 323.140625 174.574219 324.871094 C 187.460938 333.214844 187.589844 333.277344 191.371094 330.839844 C 192.65625 330.003906 194.964844 328.59375 196.4375 327.695312 C 199.773438 325.707031 206.953125 321.085938 209.519531 319.355469 C 210.609375 318.648438 212.917969 317.109375 214.648438 316.019531 C 216.441406 314.925781 219.457031 313.003906 221.445312 311.71875 C 223.433594 310.4375 225.933594 308.960938 226.894531 308.382812 C 230.230469 306.457031 237.667969 301.902344 240.9375 299.785156 C 242.730469 298.628906 246.195312 296.382812 248.628906 294.78125 C 256.390625 289.777344 257.222656 288.300781 254.785156 284.835938 C 252.15625 281.175781 251.902344 277.390625 251.902344 235.492188 C 251.835938 186.792969 252.734375 189.746094 240.421875 198.855469 C 236.960938 201.421875 232.730469 204.566406 230.933594 205.785156 C 227.214844 208.417969 225.996094 209.25 216.890625 215.925781 C 213.171875 218.617188 207.660156 222.789062 204.644531 225.164062 C 196.757812 231.386719 190.667969 234.660156 187.269531 234.660156 C 183.421875 234.59375 181.371094 233.3125 161.558594 217.785156 C 151.941406 210.277344 146.746094 206.363281 140.976562 202.257812 C 138.925781 200.847656 135.398438 198.152344 133.027344 196.289062 C 129.113281 193.210938 126.742188 192.3125 125.652344 193.402344 Z M 125.652344 193.402344 " fill-opacity="1" fill-rule="nonzero"/></svg>